<?xml version="1.0" encoding="UTF-8"?><svg id="Layer_1" xmlns="http://www.w3.org/2000/svg" viewBox="0 0 60 40"><defs><style>.cls-1{stroke-width:0px;}</style></defs><path class="cls-1" d="M12.57,14.63l-.82,3.72h-3.72l2.86-12.89,2.27-1.81h5.63l1.43,1.81-1.66,7.39-2.27,1.79h-3.72ZM15.19,11.06l.84-3.7h-1.79l-.84,3.7h1.78Z"/><path class="cls-1" d="M25.4,3.65l-2.52,10.98h5.63l-.84,3.72h-7.41l-1.43-1.81,2.86-12.89h3.72Z"/><path class="cls-1" d="M35.56,14.65l2.5-11h3.72l-2.98,12.92-2.29,1.79h-5.48l-1.47-1.79,2.88-12.92h3.72l-2.5,11h1.91Z"/><path class="cls-1" d="M48.04,7.37h-1.81l-.59,2.25h3.72l1.43,1.81-1.07,5.14-2.27,1.79h-5.63l-1.43-1.79.71-3.23h3.72l-.25,1.3h1.79l.61-2.27h-3.82l-1.32-1.78,1.09-5.15,2.27-1.79h5.48l1.55,1.79-.84,3.23h-3.7l.36-1.3Z"/><path class="cls-1" d="M9.56,32.65l2.5-11h3.72l-2.98,12.92-2.29,1.79h-5.48l-1.47-1.79,2.88-12.92h3.72l-2.5,11h1.91Z"/><path class="cls-1" d="M20.97,21.65l-2.52,10.98h5.63l-.84,3.72h-7.41l-1.43-1.81,2.86-12.89h3.72Z"/><path class="cls-1" d="M34.86,21.65l-.86,3.72h-2.73l-2.5,10.98h-3.7l2.5-10.98h-2.88l.84-3.72h9.32Z"/><path class="cls-1" d="M36.95,36.35h-3.7l3.34-14.7h7.41l1.43,1.81-.82,3.7-2.29,1.91,1.45,1.81-.86,3.7-2.25,1.79h-1.81l1.2-5.48h-1.79l-1.32,5.48ZM39.12,27.15h1.79l.48-1.81h-1.91l-.36,1.81Z"/><path class="cls-1" d="M44.26,36.35l2.86-12.92,2.39-1.79h5.5l1.43,1.79-2.88,12.92h-3.7l.84-3.72h-1.91l-.84,3.72h-3.7ZM52.26,25.37h-1.78l-.84,3.7h1.91l.71-3.7Z"/></svg>